<svg version="1.1" xmlns="http://www.w3.org/2000/svg" xmlns:xlink="http://www.w3.org/1999/xlink" width="115" height="115" viewBox="0,0,115,115"><g transform="translate(-182.5,-122.5)"><g data-paper-data="{&quot;isPaintingLayer&quot;:true}" fill="none" fill-rule="nonzero" stroke="#000000" stroke-linejoin="miter" stroke-miterlimit="10" stroke-dasharray="" stroke-dashoffset="0" style="mix-blend-mode: normal"><path d="M183.5,236.5v-113h113v113z" stroke-width="2" stroke-linecap="butt"/><g stroke-width="10"><path d="M282.94518,206.21069c-2.27206,5.10949 -9.89236,6.68203 -17.02042,3.51236c-7.12805,-3.16967 -11.06462,-9.88125 -8.79256,-14.99074c2.27206,-5.10949 9.89236,-6.68203 17.02042,-3.51236c7.12805,3.16967 11.06462,9.88125 8.79256,14.99074z" stroke-linecap="butt"/><path d="M256.58179,189.93124l-60.02468,-27.49728" stroke-linecap="round"/><path d="M285.4945,158.20815c1.48258,5.39176 -3.41321,11.43933 -10.93505,13.50762c-7.52184,2.06829 -14.82137,-0.62592 -16.30395,-6.01768c-1.48258,-5.39176 3.41321,-11.43933 10.93505,-13.50762c7.52184,-2.06829 14.82137,0.62592 16.30395,6.01768z" stroke-linecap="butt"/><path d="M258.25,171.32813l-62.25,22" stroke-linecap="round"/></g></g></g></svg>