<svg version="1.1" xmlns="http://www.w3.org/2000/svg" xmlns:xlink="http://www.w3.org/1999/xlink" width="115" height="115" viewBox="0,0,115,115"><g transform="translate(-182.5,-122.5)"><g data-paper-data="{&quot;isPaintingLayer&quot;:true}" fill-rule="nonzero" stroke-linejoin="miter" stroke-miterlimit="10" stroke-dasharray="" stroke-dashoffset="0" style="mix-blend-mode: normal"><path d="M183.5,236.5v-113h113v113z" fill="#000000" stroke="#000000" stroke-width="2" stroke-linecap="butt"/><path d="M226.625,177.75c0,-7.38681 5.98819,-13.375 13.375,-13.375c7.38681,0 13.375,5.98819 13.375,13.375c0,7.38681 -5.98819,13.375 -13.375,13.375c-7.38681,0 -13.375,-5.98819 -13.375,-13.375z" fill="none" stroke="#ffffff" stroke-width="5" stroke-linecap="butt"/><path d="M240.25,205.57813v21.5" fill="none" stroke="#ffffff" stroke-width="14" stroke-linecap="round"/><path d="M190.31788,153.82813v-23h100.52989v23z" fill="#ffffff" stroke="#ffffff" stroke-width="5" stroke-linecap="butt"/><g fill="none" stroke="#000000" stroke-width="4" stroke-linecap="round"><path d="M208.50548,132.31148l13.3057,20.61438"/><path d="M208.57801,152.79713l13.3057,-20.61438"/></g><g fill="none" stroke="#000000" stroke-width="4" stroke-linecap="round"><path d="M192.61922,132.33933h10.49167"/><path d="M192.61922,142.47846h10.49167"/><path d="M192.61922,152.61759h10.49167"/><path d="M192.26769,132.55954v20.14276"/></g><path d="M239.7263,132.19633v10.13085" fill="none" stroke="#000000" stroke-width="4" stroke-linecap="round"/><path d="M274.5864,132.10255v10.13085" fill="none" stroke="#000000" stroke-width="4" stroke-linecap="round"/><path d="M227.83401,132.24554h11.85129" fill="none" stroke="#000000" stroke-width="4" stroke-linecap="round"/><path d="M227.83401,142.38468h11.85129" fill="none" stroke="#000000" stroke-width="4" stroke-linecap="round"/><path d="M227.43692,132.46576v20.14276" fill="none" stroke="#000000" stroke-width="4" stroke-linecap="round"/><path d="M245.28936,152.60568h11.85129" fill="none" stroke="#000000" stroke-width="4" stroke-linecap="round"/><path d="M262.77953,132.05798h11.85129" fill="none" stroke="#000000" stroke-width="4" stroke-linecap="round"/><path d="M262.77953,142.19712h11.85129" fill="none" stroke="#000000" stroke-width="4" stroke-linecap="round"/><path d="M266.91473,142.31978l6.03996,10.19667" fill="none" stroke="#000000" stroke-width="4" stroke-linecap="round"/><path d="M262.38244,132.2782v20.14276" fill="none" stroke="#000000" stroke-width="4" stroke-linecap="round"/><g fill="none" stroke="#000000" stroke-width="4" stroke-linecap="round"><path d="M279.32181,132.13985h10.79741"/><path d="M284.3698,132.36007v20.14276"/></g><g fill="none" stroke="#000000" stroke-width="4" stroke-linecap="round"><path d="M244.89227,132.37198v20.14276"/><g><path d="M257.09383,132.45385v20.14276"/><path d="M245.28936,132.15176h11.85129"/></g></g></g></g></svg>